#tb 0: 1/10
0,          0,          0,        1,    76800, 0x8228830e
0,          1,          1,        1,    76800, 0x1c196731
0,          2,          2,        1,    76800, 0xf7924863
0,          3,          3,        1,    76800, 0x66e41b5e
0,          4,          4,        1,    76800, 0x79ccf593
0,          5,          5,        1,    76800, 0xd35b667c
0,          6,          6,        1,    76800, 0xd70b2d3a
0,          7,          7,        1,    76800, 0x122fffcd
0,          8,          8,        1,    76800, 0x1989c5b8
0,          9,          9,        1,    76800, 0x94de92e9
0,         10,         10,        1,    76800, 0x5f946148
0,         11,         11,        1,    76800, 0x3b448caa
0,         12,         12,        1,    76800, 0xbbab5e46
0,         13,         13,        1,    76800, 0x8977280a
0,         14,         14,        1,    76800, 0x1ad8f8f4
0,         15,         15,        1,    76800, 0x719dc79c
0,         16,         16,        1,    76800, 0xf3598e9a
0,         17,         17,        1,    76800, 0xe7b86365
0,         18,         18,        1,    76800, 0x4e492c41
0,         19,         19,        1,    76800, 0x922e036a
